<svg version="1" xmlns="http://www.w3.org/2000/svg" width="346.667" height="346.667" viewBox="0 0 260.000000 260.000000"><path d="M128.1 29c-5.3 1.2-7.9 3-8.4 5.7-.4 2.1-.2 2.4 1.7 1.8 10.8-3.4 12.4-3.6 25.1-3.1 18.2.7 34.3 5 43.5 11.6 4.1 3 3.8.7-.4-2.5-9-6.8-29.7-11.9-48.8-12-7.1 0-12.5-.1-12-.2.4-.2 3.2-.7 6.2-1.2l5.5-.9H136c-2.5 0-6 .4-7.9.8zM126 43.3c-1.4.7-2.6 2.3-2.8 3.5-.4 2.7-.4 2.7 3.9.4 4.3-2.2 22.4-2.9 32.7-1.2 8.6 1.4 20.1 5.1 24 7.8 5 3.4 5.7 3.4 1.8-.2-6.9-6.3-24.6-10.8-42.7-10.9-8.7-.1-11.3.3-14.7 2-5 2.4-5.5 2.1-.9-.7 3.5-2.2 2.6-2.7-1.3-.7z"/><path d="M141.9 54.7c-.6 1.7-.9 9.8-.7 20 .3 15 .5 17.5 2.1 19 1.5 1.6 1.9 1.6 2.7.3 1.1-1.6 1.4-32.9.4-37.8-.8-4.1-3.2-4.9-4.5-1.5zM130 55c0 .6.5.8 1.1.4.6-.3 1.6 0 2.1.7.8 1.2.9 1.1.5-.1-.4-1.8-3.7-2.7-3.7-1zM46.1 72.4c1.5.9 8.9 2.9 16.5 4.5 44 9.4 79.7 24.9 103.9 45 6 5 8.5 6 4.9 2-3-3.4-16.4-13.3-24.6-18.3-9.8-6-27.8-14.5-40-19-14-5.2-46.6-13.5-59.3-15.2l-4-.5 2.6 1.5zM129.6 83.7c-.7.7 2.3 4.3 3.6 4.3.4 0 .8-.6.8-1.3 0-1.4-3.5-3.9-4.4-3z"/><path d="M81.4 89.6c31.2 8.4 61.5 24.2 77.1 40.3 4.3 4.5 5.6 4.9 7.6 2.5 1.2-1.4 1.1-1.6-.6-1.2-1.4.3-4.6-1.8-10-6.5-20-17.3-45.9-30.5-72-36.8-14.4-3.4-16.1-2.1-2.1 1.7zM154 99c0 .9 3.2 3 4.6 3 .4 0-.1-.9-1.1-2-1.9-2.1-3.5-2.6-3.5-1z"/><path d="M108.6 107.4c18.9 9.7 33.7 19.2 41.4 26.4 3.8 3.6 6 5 7.2 4.6 1-.3 1.6-1 1.2-1.5-.3-.5-1-.7-1.5-.3-.6.3-3.6-1.8-6.7-4.8-7.1-6.8-21.1-16.2-34.5-23.3-8.8-4.7-20.5-9.6-22.6-9.5-.3 0 6.7 3.8 15.5 8.4zM166 107.8c0 1.3 2.3 3.2 3.9 3.2 1.1 0 1-.4-.4-2-1.9-2.1-3.5-2.6-3.5-1.2zM178 116.8c0 1.3 3.9 4.6 4.6 3.9.3-.3.3-1-.1-1.6-.9-1.5-4.5-3.3-4.5-2.3zM176.9 133.3c-5.1 7-10.7 11.3-18.2 13.8-4 1.4-5.5 1.5-6.6.6-1.2-1-1.2-.9-.2 1 1.2 2.4 3.2 2.8 6.6 1.3 1.6-.6 3 .2 7.3 4.3 5.9 5.8 7.2 4.4 1.5-1.6-3.3-3.4-3.6-3.9-2.1-4.8.9-.5 3.5-2.8 5.7-5.2l4.1-4.2 6.2 6.7c5.7 5.9 7.3 7 15.7 10.3 5.1 2 9.6 3.4 9.8 3.1 1.2-1.2-1.3-2.6-9.9-5.7-7-2.6-10.2-4.4-13.1-7.4-7-7-7.1-7.5-4.1-12.9 1.4-2.6 2.4-4.9 2.2-5.1-.2-.2-2.4 2.4-4.9 5.8zM79.1 151.1c-5.7 11.6-10 21.3-9.7 21.6.5.5 11.6-22 16.8-34 1.1-2.6 2.6-4.7 3.2-4.7.6 0 5.1 8.8 10.1 19.6 4.9 10.8 9.1 19.2 9.2 18.7.3-.8-17.9-40.8-19-42-.2-.1-5 9.2-10.6 20.8zM208.6 169c.8 3.1 6.7 14.8 8.8 17.5 2.4 3.1 1.9.8-.8-3.8-1.4-2.3-3.9-6.9-5.6-10.2-1.7-3.3-2.8-4.9-2.4-3.5zM195.2 173.2c.3.7 1.4 1.4 2.6 1.6 1.1.2 6.1 4.5 10.9 9.6 9.6 9.9 14.6 14.1 7.4 6-10.9-12.1-17.4-18.4-19.3-18.4-1.1 0-1.8.5-1.6 1.2zM65 180.9c0 .9-15.8 34.2-16.6 35-.3.3-2.2.4-4.4.3-3-.2-4 .1-4 1.3 0 1.9 7.3 2.1 8.7.2.6-.6 4.5-8.6 8.8-17.7 4.2-9.1 7.8-16.6 8-16.8.1-.1 10.7-.3 23.6-.3l23.4-.2 2.5 4.9c5.1 9.6 4.2 9.1 8.6 5.6 2.2-1.6 5.4-3.3 7.2-3.7 3.6-.7 4.4-2.5 1.1-2.5-3 0-8.7 2.9-10.4 5.3-.8 1.2-1.7 1.9-1.9 1.6-.3-.2-1.8-3.5-3.5-7.2l-3-6.7H89c-13.2 0-24 .4-24 .9zM175 182.9c0 1.6 1 1.8 10.7 3 5 .6 12.2 2.1 15.8 3.2 7.7 2.3 9.5 1.9 3.8-.9-7.2-3.6-30.3-7.7-30.3-5.3z"/><path d="M64 194.2c0 3.1 10.2 24.9 11.5 24.5 1.2-.4 9.4-18.8 10.5-23.5 1.5-6.2-.8-3.1-4.6 6.2-2.5 6.2-4.6 9.8-5.9 10.4-2.2 1-2.8.1-8.2-12.1-2.5-5.6.4-2.5 3.6 3.9 4.7 9.5 4.8 7.3.1-2.9-3.9-8.6-7-11.4-7-6.5zM211.1 193.7c0 1.2 5.9 5.6 5.9 4.6 0-1.1-4.3-5.3-5.3-5.3-.4 0-.7.3-.6.7zM128.5 196.5c-1.4 1.3-2.5 3-2.5 3.6 0 .7.9.3 2.1-1 4.5-4.8 9.2-4.9 14.3-.2 1.6 1.5 2.7 2 2.4 1.1-.8-2.5-6.9-6-10.5-6-2.3 0-4.2.8-5.8 2.5zM95 197.1c-1.7 3-.8 3.1 1.7.3 1.5-1.7 1.7-2.4.8-2.4-.8 0-1.9.9-2.5 2.1zM108 197.5c2.7 2.9 3.7 2.7 2-.4-.6-1.2-1.8-2.1-2.7-2.1-1.3 0-1.2.5.7 2.5zM173.8 195.7c1.2.2 3.2.2 4.5 0 1.2-.2.2-.4-2.3-.4s-3.5.2-2.2.4zM186.8 195.7c1.2.2 3 .2 4 0 .9-.3-.1-.5-2.3-.4-2.2 0-3 .2-1.7.4zM202 196.5c-2 2.4-.6 2.8 1.5.5 1-1.1 1.3-2 .8-2-.6 0-1.6.7-2.3 1.5zM157.2 202c-1.1 2.2-1.6 4-1.2 4 .4 0 1.2-1.1 1.8-2.5.6-1.4 1.6-2.5 2.2-2.5.5 0 1.2 1.1 1.6 2.5.3 1.4 1 2.5 1.4 2.5.5 0 .1-1.8-.8-4s-2-4-2.3-4c-.4 0-1.6 1.8-2.7 4zM152 212.7c-3.4 6.7-3.4 6.7-2 5.8.6-.4 1.8-2.3 2.6-4.1 1.4-3.3 1.6-3.4 6.9-3.4 5.4 0 5.5.1 7.5 4 1.8 3.6 5 5.5 5 3 0-.6-.7-1-1.5-1s-2.5-2.1-3.8-4.7c-1.5-2.8-2.7-4.2-3.1-3.5-.9 1.5-6.8 1.6-8.2.2-.7-.7-1.8.6-3.4 3.7zM89 209.8c0 1.7 4.4 7.1 6.6 8.1 1.5.6 2.8 1 2.9.9.2-.2-1.9-2.3-4.6-4.8-2.7-2.5-4.9-4.4-4.9-4.2zM114.4 210.4c-.4.9-2.7 3.3-5.2 5.2-2.5 1.8-3.8 3.4-2.9 3.4 3.1 0 10.9-8.2 9.3-9.7-.3-.3-.8.2-1.2 1.1zM121 210.5c0 2.8 6.5 8.2 10.8 9 4 .6 8.6-.6 11.4-3.2 3.2-2.8 1.9-3.5-1.5-.9-1.9 1.5-4.6 2.6-6.1 2.6-3.6 0-9.9-3.3-12.5-6.6-1.7-2.1-2.1-2.3-2.1-.9zM196 210.6c0 1.9 3.2 5.4 6.2 7 1.6.8 3.1 1.4 3.2 1.2.1-.2-2-2.3-4.6-4.7-2.6-2.4-4.8-4-4.8-3.5zM220.3 211.4c-.4.8-2.5 2.8-4.7 4.5-2.3 1.8-3.2 3.1-2.3 3.1 1.8 0 8.7-6.2 8.7-7.9 0-1.5-.7-1.4-1.7.3zM180.5 218c.3.5 1.3 1 2.1 1s1.4-.5 1.4-1c0-.6-.9-1-2.1-1-1.1 0-1.7.4-1.4 1z"/></svg>