<svg version="1" xmlns="http://www.w3.org/2000/svg" width="609.333" height="609.333" viewBox="0 0 457.000000 457.000000"><path d="M172.5 29.1c-31.8 4.6-67.7 32.4-83.9 64.7-7.2 14.3-12.4 35.8-13.3 54.8-1.4 30.8 7.1 54.7 26.6 74.2 13 13 29.2 20.7 65.2 31.1 38.6 11.1 49.5 16.4 58.8 28.9 6.5 8.6 8.6 16.4 8.5 31.2-.1 10.8-.5 13.7-2.9 21-1.5 4.7-4.5 12.1-6.7 16.4l-4 7.9-37.1-.6c-36.9-.6-68.7-2.3-101.3-5.2-16.1-1.5-53.2-5.7-62.5-7.1-7.2-1.1-4.1.2 7.6 3.2 10.5 2.7 11.4 3.1 21 10.4 55.9 42.8 121.9 67.8 179.1 68 50 .1 104.1-17.4 155.9-50.3 11-7 27.8-19 32.5-23.2 1.6-1.5 6.4-3.2 13.8-5 6.2-1.5 11.1-2.9 10.9-3.1-.1-.2-8.8.8-19.2 2.1-24.8 3.1-57.2 6.1-86.5 8-25.4 1.7-92 3.2-92 2.2 0-.4 2.2-4.6 5-9.4 7.4-13 13.7-28.7 18-45.1 8.2-31.3 3.4-64-12.4-84.9-12.6-16.7-31.2-26.4-72.1-37.9-44.4-12.5-59.7-20.4-69.7-35.8-16.7-25.9-5.2-66 22.8-79.7 6.4-3.1 7.6-3.4 16.5-3.4 9 0 9.9.2 17.1 3.7 8.6 4.3 17.1 12.6 22.7 22.4 7 12 9.7 14.2 14 11.5 2.6-1.7 11.1-43 11.1-54.2 0-5.3-.3-6.2-3.3-9.1-3.9-3.9-10.9-6.3-22.7-7.8-9.3-1.1-9.1-1.1-17.5.1zM146 367.5c11.3.9 30.9 2 43.7 2.4 12.7.3 23.5 1 23.9 1.3.3.4-1.7 3.9-4.6 7.8-21.4 28.9-50.1 32.6-73.6 9.5-6.7-6.6-16.4-19.9-16.4-22.5 0-.8 1.1-1 3.3-.6 1.7.3 12.4 1.3 23.7 2.1zm192-1.1c0 2.8-10.1 16.4-16.9 22.8-23.5 22.2-51.4 18.2-73.1-10.6-2.2-2.9-4-5.8-4-6.4 0-1.5 5.5-2 28-2.6 18.1-.5 59.2-3.2 61.5-4.1 2.3-.8 4.5-.4 4.5.9z"/></svg>